<?xml version="1.0" standalone="no"?>
<!DOCTYPE svg PUBLIC "-//W3C//DTD SVG 20010904//EN"
 "http://www.w3.org/TR/2001/REC-SVG-20010904/DTD/svg10.dtd">
<svg version="1.0" xmlns="http://www.w3.org/2000/svg"
 width="2400.000000pt" height="2400.000000pt" viewBox="0 0 2400.000000 2400.000000"
 preserveAspectRatio="xMidYMid meet">

<g transform="translate(0.000000,2400.000000) scale(0.100000,-0.100000)"
fill="#000000" stroke="none">
<path d="M2312 14335 c-29 -8 -65 -21 -80 -29 -47 -24 -104 -87 -131 -145
l-26 -56 -3 -1725 c-3 -1824 -3 -1826 44 -2000 63 -238 196 -434 379 -560 130
-89 327 -158 533 -185 338 -45 653 14 903 167 97 60 265 221 324 311 l38 57
71 -68 c299 -287 697 -447 1208 -483 653 -47 1190 180 1579 666 244 304 405
649 604 1292 l88 282 96 -98 c130 -132 185 -174 556 -426 176 -120 348 -240
382 -267 186 -147 264 -314 234 -500 -46 -289 -327 -455 -692 -409 -110 14
-217 40 -424 106 -216 67 -309 63 -393 -18 -102 -97 -106 -253 -11 -361 88
-100 398 -211 719 -257 121 -18 385 -15 500 4 411 70 710 276 856 591 72 156
101 341 84 525 -21 220 -81 373 -209 533 -117 147 -206 218 -661 528 -282 191
-362 251 -436 325 -114 113 -153 187 -161 304 -7 99 13 172 66 238 78 98 196
144 372 144 142 0 203 -12 413 -82 153 -52 188 -60 252 -61 126 0 211 55 249
161 35 102 14 193 -65 272 -163 164 -665 275 -1040 229 -411 -51 -677 -240
-914 -651 -124 -215 -191 -392 -381 -1003 -106 -340 -163 -493 -253 -672 -219
-436 -513 -700 -882 -793 -264 -66 -609 -50 -850 42 -385 145 -643 462 -731
897 -40 198 -35 497 11 696 89 380 316 676 633 824 177 83 360 117 586 107
214 -9 379 -47 604 -141 50 -21 122 -42 166 -48 69 -10 87 -9 147 7 58 16 77
27 119 69 56 57 75 103 75 186 0 129 -65 214 -224 290 -244 116 -531 182 -861
196 -436 19 -856 -90 -1177 -305 -437 -293 -699 -741 -768 -1315 -16 -131 -13
-422 5 -556 19 -140 64 -322 104 -426 l31 -78 -36 -66 c-101 -185 -251 -319
-414 -372 -89 -28 -260 -35 -358 -14 -200 42 -335 173 -394 382 l-23 79 -3
1048 -3 1047 435 0 c410 0 438 1 501 21 89 27 156 90 179 168 20 68 20 94 1
157 -20 70 -71 125 -147 160 l-63 29 -452 3 -453 3 0 374 c0 350 -1 377 -21
441 -17 56 -31 77 -77 124 -39 38 -73 62 -106 73 -72 25 -162 29 -224 12z"/>
<path d="M10700 14175 l0 -175 165 0 165 0 2 -417 3 -418 235 0 235 0 3 417 2
418 163 2 162 3 0 170 0 170 -567 3 -568 2 0 -175z"/>
<path d="M11952 13772 c-121 -319 -222 -585 -224 -593 -3 -12 35 -14 226 -14
l229 0 114 335 c62 184 116 342 119 350 4 8 25 -42 50 -115 24 -71 78 -230
120 -352 l76 -223 230 0 229 0 -7 23 c-4 12 -105 279 -225 592 l-218 570 -249
3 -249 2 -221 -578z"/>
<path d="M13004 14337 c-2 -7 -3 -85 -2 -172 l3 -160 168 -3 167 -2 0 -420 0
-420 235 0 235 0 0 420 0 420 168 2 167 3 0 170 0 170 -568 3 c-458 2 -569 0
-573 -11z"/>
<path d="M14471 14328 c-90 -231 -435 -1138 -439 -1150 -4 -17 11 -18 226 -18
l229 0 119 349 c65 192 121 348 123 345 2 -2 56 -158 120 -346 l116 -343 228
-3 c190 -2 227 0 227 12 0 14 -429 1142 -443 1164 -6 9 -68 12 -253 12 -244 0
-245 0 -253 -22z"/>
<path d="M11208 12590 c-133 -24 -248 -81 -334 -165 -70 -69 -106 -126 -142
-228 -24 -65 -26 -86 -26 -222 0 -136 2 -157 26 -223 63 -177 187 -291 374
-348 83 -26 311 -26 409 -1 107 27 100 8 60 184 -5 21 -7 21 -40 7 -50 -21
-188 -32 -269 -23 -223 27 -349 199 -333 457 11 190 106 321 267 369 77 24
226 21 307 -5 l63 -20 11 42 c6 22 15 58 21 78 6 20 8 43 5 51 -14 36 -284 68
-399 47z"/>
<path d="M12140 12593 c-161 -27 -311 -135 -388 -281 -72 -135 -96 -348 -58
-506 50 -210 193 -360 391 -411 117 -30 297 -10 402 43 114 59 212 179 259
317 36 106 45 294 20 408 -37 167 -147 317 -279 380 -97 47 -242 68 -347 50z
m206 -197 c127 -59 204 -212 204 -406 0 -190 -76 -347 -195 -405 -48 -23 -169
-32 -218 -16 -161 53 -258 267 -227 498 24 179 99 296 217 339 62 22 160 17
219 -10z"/>
<path d="M14425 12590 c-135 -29 -242 -105 -286 -202 -36 -81 -34 -185 6 -263
37 -73 119 -142 214 -181 203 -82 252 -116 273 -185 25 -86 -34 -168 -138
-189 -86 -18 -224 4 -316 51 l-37 19 -11 -42 c-6 -24 -17 -64 -24 -90 -16 -55
-13 -59 55 -84 277 -99 573 -26 666 164 24 50 28 69 28 147 0 71 -5 100 -22
137 -34 75 -98 131 -210 183 -264 123 -288 141 -288 220 0 51 25 90 76 120 53
31 203 28 287 -7 l62 -26 26 84 c14 46 22 88 19 94 -23 37 -284 71 -380 50z"/>
<path d="M20410 12585 c-297 -61 -473 -269 -487 -575 -18 -400 240 -648 652
-627 90 5 234 33 250 48 3 4 -25 161 -31 168 -1 1 -33 -4 -69 -14 -87 -21
-235 -22 -307 -1 -159 46 -253 176 -265 367 -15 227 94 404 280 450 77 20 219
15 295 -9 l62 -20 16 57 c8 31 20 69 25 85 5 16 9 30 9 32 0 1 -21 9 -47 18
-113 37 -265 45 -383 21z"/>
<path d="M12960 11990 l0 -590 106 0 107 0 -5 453 -4 452 70 -140 c39 -77 154
-281 256 -452 l185 -313 113 0 112 0 0 590 0 590 -101 0 -102 0 6 -422 c3
-233 8 -434 12 -448 3 -14 -23 36 -60 110 -36 74 -150 276 -253 448 l-187 312
-127 0 -128 0 0 -590z"/>
<path d="M15050 12196 c0 -289 4 -403 14 -458 45 -235 194 -358 433 -358 198
0 345 82 417 233 49 105 56 174 56 587 l0 380 -110 0 -110 0 0 -388 c0 -427
-4 -466 -60 -547 -80 -117 -283 -116 -362 2 -54 79 -58 121 -58 545 l0 388
-110 0 -110 0 0 -384z"/>
<path d="M16210 11990 l0 -590 350 0 350 0 0 90 0 90 -240 0 -240 0 0 500 0
500 -110 0 -110 0 0 -590z"/>
<path d="M16790 12490 l0 -90 170 0 170 0 0 -500 0 -500 110 0 110 0 0 500 0
500 170 0 170 0 0 90 0 90 -450 0 -450 0 0 -90z"/>
<path d="M17797 11997 c-103 -321 -187 -586 -187 -590 0 -4 50 -6 111 -5 l111
3 20 65 c11 36 33 109 49 163 l30 97 187 -2 186 -3 51 -160 51 -160 118 -3
118 -3 -8 23 c-10 34 -150 466 -270 836 l-105 322 -138 0 -137 0 -187 -583z
m413 71 c28 -86 50 -159 50 -162 0 -3 -65 -6 -145 -6 -80 0 -145 2 -145 5 0 3
24 83 54 178 29 95 62 206 71 247 l18 74 24 -89 c13 -50 46 -160 73 -247z"/>
<path d="M18800 11990 l0 -590 101 0 100 0 -3 458 -3 457 67 -135 c36 -74 152
-279 256 -455 l189 -320 117 -3 116 -3 0 591 0 590 -107 0 -106 0 6 -377 c4
-208 10 -407 13 -443 l6 -65 -65 130 c-35 72 -148 271 -251 443 l-187 312
-124 0 -125 0 0 -590z"/>
<path d="M20929 12528 c16 -29 99 -183 185 -341 l156 -289 0 -249 0 -249 110
0 110 0 0 246 0 245 195 339 c107 187 195 342 195 345 0 3 -55 4 -122 3 l-122
-3 -83 -175 c-45 -96 -99 -215 -120 -264 l-37 -89 -18 39 c-10 22 -64 140
-121 264 l-103 225 -127 3 -128 3 30 -53z"/>
<path d="M10991 10814 c-78 -21 -147 -62 -196 -116 -52 -58 -75 -120 -75 -203
0 -165 87 -257 340 -356 61 -24 98 -47 133 -80 45 -43 47 -48 47 -100 0 -107
-67 -157 -214 -158 -84 -1 -176 18 -239 50 -21 11 -40 19 -41 17 -1 -2 -13
-41 -25 -87 -27 -99 -27 -99 69 -130 281 -91 558 -13 645 180 31 71 38 176 15
244 -36 108 -110 171 -294 249 -68 29 -138 63 -155 75 -91 65 -77 187 26 233
40 17 60 20 137 16 58 -4 111 -13 145 -27 30 -11 56 -20 57 -18 1 1 13 39 27
84 20 65 23 84 12 93 -6 5 -47 19 -90 30 -94 24 -243 26 -324 4z"/>
<path d="M15452 10810 c-119 -32 -199 -76 -277 -155 -120 -119 -169 -250 -169
-445 0 -186 42 -305 150 -419 129 -137 316 -196 545 -171 100 11 194 34 203
49 3 5 -2 45 -11 90 -13 68 -19 81 -32 76 -102 -41 -294 -43 -393 -5 -168 63
-260 253 -230 469 21 151 86 247 207 307 65 32 86 37 168 42 73 3 110 0 177
-17 46 -11 84 -20 85 -18 10 17 42 164 37 169 -23 23 -117 40 -247 44 -117 3
-152 1 -213 -16z"/>
<path d="M17211 10809 c-77 -25 -102 -39 -159 -93 -53 -50 -77 -94 -91 -169
-24 -129 32 -245 154 -322 28 -17 96 -51 153 -75 57 -23 117 -52 135 -64 108
-73 101 -206 -13 -263 -78 -40 -255 -26 -362 28 -20 10 -39 19 -41 19 -7 0
-50 -180 -44 -186 15 -15 153 -54 228 -64 146 -19 305 13 398 80 93 68 136
165 129 294 -9 158 -83 241 -297 328 -179 72 -221 109 -221 189 0 59 31 100
95 125 60 22 197 15 274 -15 30 -11 56 -20 56 -18 6 7 45 148 45 159 0 58
-303 90 -439 47z"/>
<path d="M11652 10223 l3 -588 358 -3 357 -2 0 90 0 90 -250 0 -250 0 0 170 0
170 223 2 222 3 0 90 0 90 -222 3 -223 2 0 145 0 145 235 0 235 0 0 90 0 90
-345 0 -345 0 2 -587z"/>
<path d="M12660 10805 c-8 -2 -36 -7 -62 -10 l-48 -6 0 -580 0 -579 110 0 110
0 0 240 0 240 80 0 c88 0 132 -14 167 -51 31 -34 47 -76 83 -223 17 -72 39
-147 47 -168 l15 -38 110 0 c101 0 110 1 103 18 -3 9 -29 100 -56 201 -55 204
-86 272 -141 310 -21 14 -37 28 -38 31 0 3 21 16 46 29 124 66 182 221 138
372 -23 79 -104 156 -199 189 -63 21 -90 24 -260 26 -104 2 -197 1 -205 -1z
m336 -170 c83 -24 124 -81 124 -170 0 -126 -74 -183 -252 -193 l-98 -5 0 186
c0 185 0 186 23 190 51 10 157 6 203 -8z"/>
<path d="M13450 10803 c0 -4 84 -270 187 -591 l188 -582 124 2 125 3 202 585
202 585 -111 3 c-61 1 -114 -1 -118 -5 -10 -11 -223 -686 -258 -822 -17 -62
-31 -115 -33 -117 -2 -1 -18 54 -36 124 -17 70 -78 282 -135 472 l-103 345
-117 3 c-64 1 -117 -1 -117 -5z"/>
<path d="M14600 10220 l0 -590 110 0 110 0 0 590 0 590 -110 0 -110 0 0 -590z"/>
<path d="M16090 10220 l0 -590 355 0 355 0 0 90 0 90 -245 0 -245 0 0 170 0
170 220 0 220 0 0 95 0 95 -220 0 -220 0 0 145 0 145 233 2 232 3 3 88 3 87
-346 0 -345 0 0 -590z"/>
</g>
</svg>
